<mxfile host="app.diagrams.net" modified="2022-09-16T12:10:11.631Z" agent="5.0 (Windows NT 10.0; Win64; x64) AppleWebKit/537.36 (KHTML, like Gecko) Chrome/105.0.0.0 Safari/537.36" etag="QnHXa1bG060_pVDtAB8n" version="20.3.1" type="github">
  <diagram name="Page-1" id="c7558073-3199-34d8-9f00-42111426c3f3">
    <mxGraphModel dx="1673" dy="896" grid="1" gridSize="10" guides="1" tooltips="1" connect="1" arrows="1" fold="1" page="1" pageScale="1" pageWidth="826" pageHeight="1169" background="none" math="0" shadow="0">
      <root>
        <mxCell id="0" />
        <mxCell id="1" parent="0" />
        <mxCell id="2cAW5_Y2tIhKVCwkElv9-100" value="" style="edgeStyle=orthogonalEdgeStyle;rounded=0;orthogonalLoop=1;jettySize=auto;html=1;" edge="1" parent="1" source="2cAW5_Y2tIhKVCwkElv9-97" target="2cAW5_Y2tIhKVCwkElv9-99">
          <mxGeometry relative="1" as="geometry" />
        </mxCell>
        <mxCell id="2cAW5_Y2tIhKVCwkElv9-97" value="write test / write code" style="rounded=1;whiteSpace=wrap;html=1;" vertex="1" parent="1">
          <mxGeometry x="163" y="310" width="120" height="60" as="geometry" />
        </mxCell>
        <mxCell id="2cAW5_Y2tIhKVCwkElv9-103" style="edgeStyle=orthogonalEdgeStyle;rounded=0;orthogonalLoop=1;jettySize=auto;html=1;entryX=0.5;entryY=1;entryDx=0;entryDy=0;" edge="1" parent="1" source="2cAW5_Y2tIhKVCwkElv9-99" target="2cAW5_Y2tIhKVCwkElv9-97">
          <mxGeometry relative="1" as="geometry">
            <Array as="points">
              <mxPoint x="380" y="400" />
              <mxPoint x="223" y="400" />
            </Array>
          </mxGeometry>
        </mxCell>
        <mxCell id="2cAW5_Y2tIhKVCwkElv9-108" value="" style="edgeStyle=orthogonalEdgeStyle;rounded=0;orthogonalLoop=1;jettySize=auto;html=1;" edge="1" parent="1" source="2cAW5_Y2tIhKVCwkElv9-99" target="2cAW5_Y2tIhKVCwkElv9-107">
          <mxGeometry relative="1" as="geometry" />
        </mxCell>
        <mxCell id="2cAW5_Y2tIhKVCwkElv9-99" value="Works?" style="triangle;whiteSpace=wrap;html=1;" vertex="1" parent="1">
          <mxGeometry x="350" y="300" width="80" height="80" as="geometry" />
        </mxCell>
        <mxCell id="2cAW5_Y2tIhKVCwkElv9-112" value="" style="edgeStyle=orthogonalEdgeStyle;rounded=0;orthogonalLoop=1;jettySize=auto;html=1;" edge="1" parent="1" source="2cAW5_Y2tIhKVCwkElv9-105" target="2cAW5_Y2tIhKVCwkElv9-111">
          <mxGeometry relative="1" as="geometry" />
        </mxCell>
        <mxCell id="2cAW5_Y2tIhKVCwkElv9-105" value="static code check (black, pylint)" style="rounded=1;whiteSpace=wrap;html=1;" vertex="1" parent="1">
          <mxGeometry x="620" y="310" width="120" height="60" as="geometry" />
        </mxCell>
        <mxCell id="2cAW5_Y2tIhKVCwkElv9-109" value="" style="edgeStyle=orthogonalEdgeStyle;rounded=0;orthogonalLoop=1;jettySize=auto;html=1;" edge="1" parent="1" source="2cAW5_Y2tIhKVCwkElv9-107" target="2cAW5_Y2tIhKVCwkElv9-105">
          <mxGeometry relative="1" as="geometry" />
        </mxCell>
        <mxCell id="2cAW5_Y2tIhKVCwkElv9-107" value="Git" style="rounded=1;whiteSpace=wrap;html=1;" vertex="1" parent="1">
          <mxGeometry x="470" y="310" width="120" height="60" as="geometry" />
        </mxCell>
        <mxCell id="2cAW5_Y2tIhKVCwkElv9-121" value="" style="edgeStyle=orthogonalEdgeStyle;rounded=0;orthogonalLoop=1;jettySize=auto;html=1;" edge="1" parent="1" source="2cAW5_Y2tIhKVCwkElv9-110" target="2cAW5_Y2tIhKVCwkElv9-120">
          <mxGeometry relative="1" as="geometry" />
        </mxCell>
        <mxCell id="2cAW5_Y2tIhKVCwkElv9-110" value="Build" style="rounded=1;whiteSpace=wrap;html=1;" vertex="1" parent="1">
          <mxGeometry x="920" y="310" width="120" height="60" as="geometry" />
        </mxCell>
        <mxCell id="2cAW5_Y2tIhKVCwkElv9-118" style="edgeStyle=orthogonalEdgeStyle;rounded=0;orthogonalLoop=1;jettySize=auto;html=1;exitX=0.5;exitY=1;exitDx=0;exitDy=0;entryX=0;entryY=0.5;entryDx=0;entryDy=0;" edge="1" parent="1" source="2cAW5_Y2tIhKVCwkElv9-111" target="2cAW5_Y2tIhKVCwkElv9-117">
          <mxGeometry relative="1" as="geometry">
            <Array as="points">
              <mxPoint x="830" y="480" />
            </Array>
          </mxGeometry>
        </mxCell>
        <mxCell id="2cAW5_Y2tIhKVCwkElv9-119" value="" style="edgeStyle=orthogonalEdgeStyle;rounded=0;orthogonalLoop=1;jettySize=auto;html=1;" edge="1" parent="1" source="2cAW5_Y2tIhKVCwkElv9-111" target="2cAW5_Y2tIhKVCwkElv9-110">
          <mxGeometry relative="1" as="geometry" />
        </mxCell>
        <mxCell id="2cAW5_Y2tIhKVCwkElv9-111" value="Quality ok" style="triangle;whiteSpace=wrap;html=1;" vertex="1" parent="1">
          <mxGeometry x="790" y="300" width="80" height="80" as="geometry" />
        </mxCell>
        <mxCell id="2cAW5_Y2tIhKVCwkElv9-116" value="" style="edgeStyle=orthogonalEdgeStyle;rounded=0;orthogonalLoop=1;jettySize=auto;html=1;entryX=0.5;entryY=1;entryDx=0;entryDy=0;exitX=1;exitY=0.5;exitDx=0;exitDy=0;" edge="1" parent="1" source="2cAW5_Y2tIhKVCwkElv9-117" target="2cAW5_Y2tIhKVCwkElv9-97">
          <mxGeometry relative="1" as="geometry">
            <mxPoint x="370" y="540" as="sourcePoint" />
          </mxGeometry>
        </mxCell>
        <mxCell id="2cAW5_Y2tIhKVCwkElv9-117" value="Refactor" style="shape=step;perimeter=stepPerimeter;whiteSpace=wrap;html=1;fixedSize=1;rotation=-180;" vertex="1" parent="1">
          <mxGeometry x="470" y="440" width="120" height="80" as="geometry" />
        </mxCell>
        <mxCell id="2cAW5_Y2tIhKVCwkElv9-122" style="edgeStyle=orthogonalEdgeStyle;rounded=0;orthogonalLoop=1;jettySize=auto;html=1;exitX=0.5;exitY=1;exitDx=0;exitDy=0;" edge="1" parent="1" source="2cAW5_Y2tIhKVCwkElv9-120">
          <mxGeometry relative="1" as="geometry">
            <mxPoint x="570" y="480" as="targetPoint" />
            <Array as="points">
              <mxPoint x="1140" y="480" />
            </Array>
          </mxGeometry>
        </mxCell>
        <mxCell id="2cAW5_Y2tIhKVCwkElv9-124" value="" style="edgeStyle=orthogonalEdgeStyle;rounded=0;orthogonalLoop=1;jettySize=auto;html=1;" edge="1" parent="1" source="2cAW5_Y2tIhKVCwkElv9-120" target="2cAW5_Y2tIhKVCwkElv9-123">
          <mxGeometry relative="1" as="geometry" />
        </mxCell>
        <mxCell id="2cAW5_Y2tIhKVCwkElv9-120" value="test" style="triangle;whiteSpace=wrap;html=1;" vertex="1" parent="1">
          <mxGeometry x="1110" y="300" width="60" height="80" as="geometry" />
        </mxCell>
        <mxCell id="2cAW5_Y2tIhKVCwkElv9-127" value="" style="edgeStyle=orthogonalEdgeStyle;rounded=0;orthogonalLoop=1;jettySize=auto;html=1;" edge="1" parent="1" source="2cAW5_Y2tIhKVCwkElv9-123" target="2cAW5_Y2tIhKVCwkElv9-125">
          <mxGeometry relative="1" as="geometry" />
        </mxCell>
        <mxCell id="2cAW5_Y2tIhKVCwkElv9-123" value="Merge" style="rounded=1;whiteSpace=wrap;html=1;" vertex="1" parent="1">
          <mxGeometry x="1220" y="310" width="120" height="60" as="geometry" />
        </mxCell>
        <mxCell id="2cAW5_Y2tIhKVCwkElv9-128" value="" style="edgeStyle=orthogonalEdgeStyle;rounded=0;orthogonalLoop=1;jettySize=auto;html=1;" edge="1" parent="1" source="2cAW5_Y2tIhKVCwkElv9-125" target="2cAW5_Y2tIhKVCwkElv9-126">
          <mxGeometry relative="1" as="geometry" />
        </mxCell>
        <mxCell id="2cAW5_Y2tIhKVCwkElv9-125" value="Release" style="rounded=1;whiteSpace=wrap;html=1;" vertex="1" parent="1">
          <mxGeometry x="1370" y="310" width="120" height="60" as="geometry" />
        </mxCell>
        <mxCell id="2cAW5_Y2tIhKVCwkElv9-130" value="" style="edgeStyle=orthogonalEdgeStyle;rounded=0;orthogonalLoop=1;jettySize=auto;html=1;" edge="1" parent="1" source="2cAW5_Y2tIhKVCwkElv9-126" target="2cAW5_Y2tIhKVCwkElv9-129">
          <mxGeometry relative="1" as="geometry" />
        </mxCell>
        <mxCell id="2cAW5_Y2tIhKVCwkElv9-132" style="edgeStyle=orthogonalEdgeStyle;rounded=0;orthogonalLoop=1;jettySize=auto;html=1;exitX=0.5;exitY=1;exitDx=0;exitDy=0;entryX=0.5;entryY=1;entryDx=0;entryDy=0;" edge="1" parent="1" source="2cAW5_Y2tIhKVCwkElv9-126" target="2cAW5_Y2tIhKVCwkElv9-131">
          <mxGeometry relative="1" as="geometry">
            <mxPoint x="1580.4285714285716" y="470" as="targetPoint" />
          </mxGeometry>
        </mxCell>
        <mxCell id="2cAW5_Y2tIhKVCwkElv9-126" value="Deploy" style="rounded=1;whiteSpace=wrap;html=1;" vertex="1" parent="1">
          <mxGeometry x="1520" y="310" width="120" height="60" as="geometry" />
        </mxCell>
        <mxCell id="2cAW5_Y2tIhKVCwkElv9-134" style="edgeStyle=orthogonalEdgeStyle;rounded=0;orthogonalLoop=1;jettySize=auto;html=1;exitX=0.55;exitY=0.95;exitDx=0;exitDy=0;exitPerimeter=0;" edge="1" parent="1" source="2cAW5_Y2tIhKVCwkElv9-129" target="2cAW5_Y2tIhKVCwkElv9-133">
          <mxGeometry relative="1" as="geometry">
            <Array as="points">
              <mxPoint x="1840" y="376" />
            </Array>
          </mxGeometry>
        </mxCell>
        <mxCell id="2cAW5_Y2tIhKVCwkElv9-129" value="Feedback" style="ellipse;shape=cloud;whiteSpace=wrap;html=1;rounded=1;" vertex="1" parent="1">
          <mxGeometry x="1780" y="300" width="120" height="80" as="geometry" />
        </mxCell>
        <mxCell id="2cAW5_Y2tIhKVCwkElv9-136" style="edgeStyle=orthogonalEdgeStyle;rounded=0;orthogonalLoop=1;jettySize=auto;html=1;exitX=1;exitY=0.5;exitDx=0;exitDy=0;entryX=0.5;entryY=1;entryDx=0;entryDy=0;" edge="1" parent="1" source="2cAW5_Y2tIhKVCwkElv9-131" target="2cAW5_Y2tIhKVCwkElv9-97">
          <mxGeometry relative="1" as="geometry">
            <mxPoint x="220" y="390" as="targetPoint" />
          </mxGeometry>
        </mxCell>
        <mxCell id="2cAW5_Y2tIhKVCwkElv9-131" value="Bugs" style="shape=step;perimeter=stepPerimeter;whiteSpace=wrap;html=1;fixedSize=1;rotation=-180;" vertex="1" parent="1">
          <mxGeometry x="1520" y="520" width="120" height="80" as="geometry" />
        </mxCell>
        <mxCell id="2cAW5_Y2tIhKVCwkElv9-135" style="edgeStyle=orthogonalEdgeStyle;rounded=0;orthogonalLoop=1;jettySize=auto;html=1;exitX=1;exitY=0.5;exitDx=0;exitDy=0;entryX=0.5;entryY=1;entryDx=0;entryDy=0;" edge="1" parent="1" source="2cAW5_Y2tIhKVCwkElv9-133" target="2cAW5_Y2tIhKVCwkElv9-97">
          <mxGeometry relative="1" as="geometry" />
        </mxCell>
        <mxCell id="2cAW5_Y2tIhKVCwkElv9-133" value="New features" style="shape=step;perimeter=stepPerimeter;whiteSpace=wrap;html=1;fixedSize=1;rotation=-180;" vertex="1" parent="1">
          <mxGeometry x="1780" y="620" width="120" height="80" as="geometry" />
        </mxCell>
      </root>
    </mxGraphModel>
  </diagram>
</mxfile>
